HIERARCHY
ROOT Hips
{
     OFFSET 1.88212 96.90440 -13.34250
     CHANNELS 6 Xposition Yposition Zposition Zrotation Xrotation Yrotation
     JOINT Spine
     {
          OFFSET 0.00000 11.89050 0.00000
          CHANNELS 3 Zrotation Xrotation Yrotation
          JOINT Spine1
          {
               OFFSET -0.00000 25.65740 0.12766
               CHANNELS 3 Zrotation Xrotation Yrotation
               JOINT HEad
               {
                    OFFSET 0.00000 8.73416 0.01134
                    CHANNELS 3 Zrotation Xrotation Yrotation
                    End Site
                    {
                         OFFSET -0.29000 12.77420 2.51395
                    }
               }
               JOINT LeftShoulder1
               {
                    OFFSET 8.99000 -0.36225 -0.22000
                    CHANNELS 3 Zrotation Xrotation Yrotation
                    JOINT LeftArm
                    {
                         OFFSET 10.28270 -0.00338 0.32212
                         CHANNELS 3 Zrotation Xrotation Yrotation
                         JOINT LeftForeArm
                         {
                              OFFSET 32.76690 0.09914 -1.42434
                              CHANNELS 3 Zrotation Xrotation Yrotation
                              JOINT LeftHand
                              {
                                   OFFSET 27.56430 0.08536 1.02216
                                   CHANNELS 3 Zrotation Xrotation Yrotation
                                   End Site
                                   {
                                        OFFSET 16.74430 -0.60000 1.50291
                                   }
                              }
                         }
                    }
               }
               JOINT RightShoulder
               {
                    OFFSET -8.99000 -0.36225 -0.22000
                    CHANNELS 3 Zrotation Xrotation Yrotation
                    JOINT RightArm
                    {
                         OFFSET -10.28270 -0.00338 0.32212
                         CHANNELS 3 Zrotation Xrotation Yrotation
                         JOINT RightForeArm
                         {
                              OFFSET -32.89710 0.09914 -1.42434
                              CHANNELS 3 Zrotation Xrotation Yrotation
                              JOINT RightHand
                              {
                                   OFFSET -27.49210 0.08536 1.02216
                                   CHANNELS 3 Zrotation Xrotation Yrotation
                                   End Site
                                   {
                                        OFFSET -16.63120 -0.60000 1.50291
                                   }
                              }
                         }
                    }
               }
          }
     }
     JOINT LeftUpLeg
     {
          OFFSET 8.94580 -8.66707 0.10165
          CHANNELS 3 Zrotation Xrotation Yrotation
          JOINT LeftLeg
          {
               OFFSET 0.00000 -44.42270 1.37270
               CHANNELS 3 Zrotation Xrotation Yrotation
               JOINT LeftFoot
               {
                    OFFSET -0.25355 -42.09240 -1.46059
                    CHANNELS 3 Zrotation Xrotation Yrotation
                    JOINT LeftToes
                    {
                         OFFSET -0.04000 -4.41509 8.49910
                         CHANNELS 3 Zrotation Xrotation Yrotation
                         End Site
                         {
                              OFFSET 0.08000 -0.04745 9.77979
                         }
                    }
               }
          }
     }
     JOINT RightUpLeg
     {
          OFFSET -8.94580 -8.66707 0.10165
          CHANNELS 3 Zrotation Xrotation Yrotation
          JOINT RightLeg
          {
               OFFSET 0.00000 -44.42270 1.37270
               CHANNELS 3 Zrotation Xrotation Yrotation
               JOINT RightFoot
               {
                    OFFSET 0.25355 -42.09240 -1.46059
                    CHANNELS 3 Zrotation Xrotation Yrotation
                    JOINT RightToes
                    {
                         OFFSET 0.04000 -4.41509 8.49910
                         CHANNELS 3 Zrotation Xrotation Yrotation
                         End Site
                         {
                              OFFSET -0.08000 -0.13745 9.77979
                         }
                    }
               }
          }
     }
}
MOTION
Frames: 8
Frame Time: 0.01667
-3.92612 49.04316 -119.36369 16.47528 -0.71524 -7.38651 -16.99398 25.97283 3.51089 -0.10718 0.00774 0.06539 -14.99063 -24.11045 40.75145 -14.16720 1.74493 9.89718 -173.35046 -74.46848 -147.97702 -54.83343 58.64613 -89.23166 2.49008 9.78001 0.86447 -6.87648 2.96051 19.05905 75.03432 -16.27236 87.11572 24.16184 35.32497 92.42876 -4.74644 9.12192 -0.72846 38.41476 -34.24459 4.18622 -6.99301 64.55527 21.25330 -30.07321 0.08911 0.00281 -9.18803 1.96182 3.05856 -48.08272 -60.06599 -27.80166 -202.47099 55.66398 198.05423 -2.00664 0.11668 -0.11138 -14.06803 -90.00000 0.00000 
-6.79162 52.77966 -116.79823 16.45964 -0.44991 -5.80569 -17.92672 22.45822 4.80729 -0.10057 0.02418 0.06335 -16.84350 -19.92388 41.51940 -12.75568 5.07836 8.68892 -173.59363 -73.11952 -148.95988 -53.83820 58.55363 -89.29043 26.25347 20.74019 -10.92505 -5.05129 6.40360 17.51777 74.17002 -16.48899 88.19062 23.88158 34.96840 92.59437 -1.90107 9.86840 1.75655 38.41956 -31.02139 6.39443 -13.96543 60.97986 26.44824 -30.04249 0.09475 -0.00052 -0.50079 -5.32608 -3.53992 -40.61209 -53.11566 -25.31865 -201.21358 63.41994 202.36845 9.91030 -0.79090 0.19430 -33.52782 -90.00000 0.00000 
-9.71929 56.51576 -114.08871 15.88708 0.06337 -2.39345 -18.64559 19.48328 5.47152 -0.08336 0.03872 0.05944 -17.49461 -15.54675 41.18821 -10.19086 8.24424 6.58050 -172.03856 -71.76202 -147.90311 -52.98420 58.61365 -89.15878 12.79321 12.30050 -8.70416 -1.67260 9.57645 14.92679 73.06441 -17.00931 88.63853 23.78918 34.86504 92.82464 -4.63927 8.51747 -0.73453 38.01924 -30.04187 7.97383 -24.86040 58.62405 33.19102 -30.03086 0.06969 -0.00520 -11.86869 -3.22790 1.02793 -34.94908 -45.36706 -25.75145 -198.77406 70.75204 206.15475 21.90890 -0.79121 0.50619 -4.24326 -78.47771 44.65958 
-12.89064 60.42805 -111.19344 14.66914 0.63695 2.57229 -18.99019 17.27131 5.80049 -0.05575 0.04737 0.06329 -17.25819 -11.08587 39.55007 -6.58000 10.91044 3.58832 -168.85509 -70.43318 -145.01224 -52.31038 58.46813 -88.90833 20.42933 17.18513 -8.06155 3.28409 12.15037 11.21211 71.49361 -17.82568 88.33437 23.66245 35.13038 93.56168 -3.56159 8.82116 1.46526 37.98565 -30.21270 9.35118 -30.23851 55.69361 33.45034 -30.06127 0.04046 -0.01638 -14.87428 -10.64048 -0.53797 -29.36591 -37.53954 -27.52407 -195.15282 78.25135 208.68425 34.10305 -0.70976 0.71173 -50.40906 -63.87143 5.28846 
-16.07013 64.16034 -108.33290 12.75100 1.04965 8.86001 -18.71561 16.04716 5.89049 -0.03334 0.06471 0.05789 -16.31931 -6.83864 36.57269 -2.29357 12.80145 -0.61983 -165.54933 -69.04242 -141.84935 -51.61591 58.49580 -88.72929 12.18270 12.15664 -6.74425 9.09269 13.56986 6.22036 69.89216 -18.59641 87.57657 23.46873 35.65966 94.72557 -5.38522 8.03031 -0.05541 37.71066 -31.82080 10.22755 -39.00869 53.23162 35.27082 -30.04550 0.03289 -0.01094 -19.09325 -10.78794 -5.62522 -23.35898 -30.29136 -30.16622 -341.71860 90.00000 360.00000 16.64389 0.86199 -0.65941 -27.80771 -53.56936 -0.97889 
-19.30857 67.66993 -105.55838 9.97749 1.07582 16.10407 -16.79450 15.44201 4.17767 0.02988 0.02675 -0.03811 -15.36617 -3.06940 33.98888 1.29099 14.09318 -4.14723 -162.38832 -67.64886 -138.77988 -51.01125 58.39637 -88.55664 16.24131 15.07297 -5.89373 14.18923 14.28724 1.91683 68.37087 -19.30070 86.48367 23.14026 36.43407 96.29317 -5.02854 8.32438 1.23196 36.88120 -34.68923 10.45252 -49.86046 51.45224 38.20466 -30.02207 0.02149 -0.01747 -20.52935 -15.93869 -9.46707 -16.31051 -24.35898 -33.13927 -391.52310 85.14586 412.96329 -0.15456 1.12684 -0.22798 -8.84940 -40.59558 -7.69838 
-22.73720 70.97778 -102.84906 7.61129 0.76414 22.38395 -15.01432 14.93535 2.66392 0.03473 0.02296 -0.03836 -14.37680 0.17640 31.53699 4.34032 14.87288 -7.02317 -159.25044 -66.22620 -135.64952 -50.41279 58.33513 -88.50053 11.12915 12.19910 -4.88074 18.55928 14.44362 -1.57553 67.06758 -20.07712 85.20196 22.74741 37.28801 98.01630 -6.25817 7.69090 0.26146 35.67886 -36.55611 11.77850 -53.59779 51.01864 34.93237 -30.01640 0.00095 0.02757 -6.54698 -15.56952 -9.00198 -9.89178 -20.22972 -34.89786 -390.33563 76.00980 410.90491 -3.42518 0.07504 -0.12716 -15.35577 -27.64450 -15.93076 
-25.98838 73.91248 -100.37363 5.56962 0.23774 27.72400 -13.29234 14.50581 1.37395 0.03196 0.02143 -0.03627 -13.42899 2.90168 29.28539 6.79893 15.28128 -9.38689 -156.74333 -64.89063 -133.18132 -49.92973 58.11587 -88.41756 13.28847 13.83486 -4.13982 22.06805 14.22667 -4.38167 66.07819 -20.66403 83.92878 22.28538 38.18723 99.71985 -6.13773 8.11902 0.82702 34.58030 -37.34092 14.29195 -48.23941 52.83281 24.55952 -30.02979 -0.00056 0.02478 -5.93442 -14.75866 -8.10944 -4.83575 -17.32996 -35.48673 -393.93054 66.82983 409.45923 -2.90825 -0.05834 -0.11866 -3.01198 -32.04424 -14.97314 
